<svg width="47" height="14" viewBox="0 0 47 14" fill="none" xmlns="http://www.w3.org/2000/svg">
<path d="M41.5116 9.99001C41.5116 10.65 41.3676 11.214 41.0796 11.682C40.8036 12.138 40.3776 12.486 39.8016 12.726C39.2256 12.966 38.4816 13.086 37.5696 13.086C36.9096 13.086 36.3336 13.038 35.8416 12.942C35.3496 12.858 34.8516 12.714 34.3476 12.51V10.296C34.8996 10.536 35.4696 10.734 36.0576 10.89C36.6456 11.046 37.1376 11.124 37.5336 11.124C37.9656 11.124 38.2716 11.046 38.4516 10.89C38.6436 10.734 38.7396 10.53 38.7396 10.278C38.7396 10.11 38.6916 9.96001 38.5956 9.82801C38.4996 9.69601 38.3076 9.54601 38.0196 9.37801C37.7316 9.21001 37.3056 8.99401 36.7416 8.73001C36.1896 8.46601 35.7336 8.20801 35.3736 7.95601C35.0256 7.69201 34.7616 7.38001 34.5816 7.02001C34.4136 6.64801 34.3296 6.18601 34.3296 5.63401C34.3296 4.72201 34.6716 4.03801 35.3556 3.58201C36.0516 3.12601 36.9636 2.89801 38.0916 2.89801C38.6916 2.89801 39.2556 2.95801 39.7836 3.07801C40.3116 3.19801 40.8576 3.39601 41.4216 3.67201L40.6116 5.59801C40.2996 5.45401 39.9936 5.32801 39.6936 5.22001C39.3936 5.11201 39.1056 5.02801 38.8296 4.96801C38.5656 4.90801 38.3136 4.87801 38.0736 4.87801C37.7616 4.87801 37.5216 4.93201 37.3536 5.04001C37.1976 5.14801 37.1196 5.31001 37.1196 5.52601C37.1196 5.68201 37.1676 5.82601 37.2636 5.95801C37.3596 6.07801 37.5456 6.21601 37.8216 6.37201C38.0976 6.51601 38.4996 6.70201 39.0276 6.93001C39.5676 7.15801 40.0176 7.39801 40.3776 7.65001C40.7496 7.89001 41.0316 8.19601 41.2236 8.56801C41.4156 8.92801 41.5116 9.40201 41.5116 9.99001Z" fill="black"/>
<path d="M28.6031 2.88C29.8151 2.88 30.7511 3.16801 31.4111 3.74401C32.0831 4.30801 32.4191 5.17801 32.4191 6.35401V12.906H30.4211L29.8631 11.574H29.7911C29.5271 11.922 29.2571 12.21 28.9811 12.438C28.7051 12.666 28.3871 12.828 28.0271 12.924C27.6671 13.032 27.2291 13.086 26.7131 13.086C26.1731 13.086 25.6871 12.978 25.2551 12.762C24.8351 12.534 24.4991 12.192 24.2471 11.736C23.9951 11.268 23.8691 10.68 23.8691 9.97201C23.8691 8.92801 24.2111 8.16001 24.8951 7.66801C25.5911 7.16401 26.6111 6.88801 27.9551 6.84001L29.5391 6.78601V6.35401C29.5391 5.83801 29.4251 5.46001 29.1971 5.22001C28.9691 4.98001 28.6571 4.86001 28.2611 4.86001C27.8531 4.86001 27.4271 4.93201 26.9831 5.076C26.5391 5.20801 26.0951 5.37601 25.6511 5.58001L24.7691 3.76201C25.2971 3.48601 25.8791 3.27001 26.5151 3.11401C27.1631 2.958 27.8591 2.88 28.6031 2.88ZM28.7111 8.38801C28.0031 8.41201 27.5051 8.56801 27.2171 8.85601C26.9411 9.14401 26.8031 9.52201 26.8031 9.99001C26.8031 10.398 26.8991 10.692 27.0911 10.872C27.2951 11.04 27.5591 11.124 27.8831 11.124C28.3391 11.124 28.7291 10.956 29.0531 10.62C29.3891 10.272 29.5571 9.78601 29.5571 9.16201V8.35201L28.7111 8.38801Z" fill="black"/>
<path d="M18.7388 2.89801C19.7228 2.89801 20.5148 3.18601 21.1148 3.76201C21.7268 4.32601 22.0328 5.23801 22.0328 6.49801V12.906H19.1528V7.16401C19.1528 6.45601 19.0448 5.92801 18.8288 5.58001C18.6248 5.22001 18.2948 5.04001 17.8388 5.04001C17.1428 5.04001 16.6748 5.32201 16.4348 5.88601C16.1948 6.43801 16.0748 7.23601 16.0748 8.28001V12.906H13.1948V3.07801H15.3728L15.7688 4.33801H15.8948C16.0988 4.00201 16.3388 3.73201 16.6148 3.52801C16.9028 3.31201 17.2268 3.15601 17.5868 3.06001C17.9468 2.95201 18.3308 2.89801 18.7388 2.89801Z" fill="black"/>
<path d="M8.82 12.906L8.082 9.846H3.924L3.168 12.906H0L4.104 0H7.848L11.97 12.906H8.82ZM6.606 4.572C6.534 4.32 6.462 4.056 6.39 3.78C6.318 3.504 6.246 3.216 6.174 2.916C6.114 2.616 6.054 2.31 5.994 1.998C5.946 2.31 5.886 2.622 5.814 2.934C5.742 3.234 5.67 3.522 5.598 3.798C5.538 4.074 5.472 4.332 5.4 4.572L4.572 7.56H7.452L6.606 4.572Z" fill="black"/>
<rect x="43.5117" y="10.086" width="3" height="3" fill="#87E080"/>
</svg>
