<svg width="1280" height="720" viewBox="0 0 1280 720" fill="none" xmlns="http://www.w3.org/2000/svg">
<g opacity="0.5" filter="url(#filter0_f_27_120)">
<path d="M755.141 600.207C755.141 641.646 707.866 628.361 678.462 627.052C649.057 625.742 643.938 655.54 586.187 647.676C538.1 641.129 526.079 617.558 511.458 591.041C483.339 540.045 505.163 532.6 523.642 532.691C528.678 532.614 603.142 544.911 630.05 536.042C664.815 524.584 709.834 486.71 748.48 527.367C759.527 538.989 755.141 561.25 755.141 600.207Z" fill="#EAF5AC"/>
</g>
<g opacity="0.2" filter="url(#filter1_f_27_120)">
<path d="M1021.42 344.604C1021.42 471.184 875.919 430.604 785.419 426.604C694.919 422.604 679.162 513.623 501.42 489.604C353.419 469.604 316.42 397.604 271.42 316.604C184.878 160.83 252.045 138.09 308.92 138.368C324.42 138.132 553.603 175.694 636.42 148.604C743.419 113.604 881.976 -2.08805 1000.92 122.104C1034.92 157.604 1021.42 225.604 1021.42 344.604Z" fill="#87E080"/>
</g>
<defs>
<filter id="filter0_f_27_120" x="298" y="309" width="658" height="540" filterUnits="userSpaceOnUse" color-interpolation-filters="sRGB">
<feFlood flood-opacity="0" result="BackgroundImageFix"/>
<feBlend mode="normal" in="SourceGraphic" in2="BackgroundImageFix" result="shape"/>
<feGaussianBlur stdDeviation="100" result="effect1_foregroundBlur_27_120"/>
</filter>
<filter id="filter1_f_27_120" x="30" y="-134" width="1194.06" height="827.647" filterUnits="userSpaceOnUse" color-interpolation-filters="sRGB">
<feFlood flood-opacity="0" result="BackgroundImageFix"/>
<feBlend mode="normal" in="SourceGraphic" in2="BackgroundImageFix" result="shape"/>
<feGaussianBlur stdDeviation="100" result="effect1_foregroundBlur_27_120"/>
</filter>
</defs>
</svg>
